<?xml version="1.0" encoding="utf-8"?>
<!-- Uploaded to: SVG Repo, www.svgrepo.com, Generator: SVG Repo Mixer Tools -->
<svg width="800px" height="800px" viewBox="0 0 1024 1024" class="icon"  version="1.1" xmlns="http://www.w3.org/2000/svg"><path d="M659.2 390.4c83.2 12.8 134.4 44.8 134.4 76.8 0 51.2-128 89.6-288 89.6s-288-38.4-288-89.6c0-32 51.2-57.6 134.4-76.8" fill="#FDD000" /><path d="M300.8 467.2a32 19.2 0 1 0 64 0 32 19.2 0 1 0-64 0Z" fill="#DF4E38" /><path d="M480 505.6a32 19.2 0 1 0 64 0 32 19.2 0 1 0-64 0Z" fill="#DF4E38" /><path d="M665.6 467.2a32 19.2 0 1 0 64 0 32 19.2 0 1 0-64 0Z" fill="#DF4E38" /><path d="M326.4 729.6c-6.4 0-6.4-6.4-6.4-6.4V614.4c0-6.4 6.4-6.4 6.4-6.4 6.4 0 6.4 6.4 6.4 6.4v102.4c0 6.4-6.4 12.8-6.4 12.8zM512 780.8c-6.4 0-6.4-6.4-6.4-6.4v-128c0-6.4 6.4-6.4 6.4-6.4 6.4 0 6.4 6.4 6.4 6.4v128c6.4 0 0 6.4-6.4 6.4zM710.4 729.6c-6.4 0-6.4-6.4-6.4-6.4V614.4c0-6.4 6.4-6.4 6.4-6.4 6.4 0 6.4 6.4 6.4 6.4v102.4c0 6.4-6.4 12.8-6.4 12.8z" fill="#FDD000" /><path d="M364.8 390.4c0-83.2 64-147.2 147.2-147.2 83.2 0 147.2 64 147.2 147.2s-294.4 83.2-294.4 0z" fill="#17A09A" /><path d="M390.4 422.4S384 416 384 409.6c0-115.2 115.2-160 115.2-160 6.4 0 12.8 0 12.8 6.4 0 0 0 6.4-6.4 6.4s-108.8 44.8-108.8 147.2c6.4 6.4 0 12.8-6.4 12.8z" fill="#FDD000" /></svg>