<?xml version="1.0" encoding="utf-8"?>
<!-- Uploaded to: SVG Repo, www.svgrepo.com, Generator: SVG Repo Mixer Tools -->
<svg width="800px" height="800px" viewBox="0 0 128 128" xmlns="http://www.w3.org/2000/svg" xmlns:xlink="http://www.w3.org/1999/xlink" aria-hidden="true" role="img" class="iconify iconify--noto" preserveAspectRatio="xMidYMid meet">
<linearGradient id="IconifyId17ecdb2904d178eab22859" gradientUnits="userSpaceOnUse" x1="181.136" y1="182.655" x2="210.302" y2="197.803" gradientTransform="scale(-1) rotate(12.075 1311.667 -1297.029)">
<stop offset="0" stop-color="#80ffee">
</stop>
<stop offset=".156" stop-color="#85fced">
</stop>
<stop offset=".34" stop-color="#93f1e8">
</stop>
<stop offset=".539" stop-color="#abe1e1">
</stop>
<stop offset=".748" stop-color="#ccc9d8">
</stop>
<stop offset=".962" stop-color="#f7accb">
</stop>
<stop offset="1" stop-color="#ffa6c9">
</stop>
</linearGradient>
<path d="M103.62 85.27c-11.04 11.24-47.55-18.37-39.7-24.6c9.49-7.53 54.74 9.29 39.7 24.6z" fill="url(#IconifyId17ecdb2904d178eab22859)">
</path>
<g fill="none" stroke="#87cdde" stroke-width=".956" stroke-linecap="round" stroke-linejoin="round" stroke-miterlimit="10">
<path d="M102.66 82.29c-8.1-11.48-17.21-17.02-30.16-22.11c-.29-.11-.6-.33-.58-.64s.64-.29.51-.01">
</path>
<path d="M92.82 84.74C90.38 83.76 72.76 67 65.67 59.27l.49.34">
</path>
<path d="M95.31 80.96c-1.81-6.25-4.28-8.96-6.43-12.49">
</path>
</g>
<linearGradient id="IconifyId17ecdb2904d178eab22860" gradientUnits="userSpaceOnUse" x1="195.146" y1="252.387" x2="238.736" y2="211.362" gradientTransform="rotate(-165.72 141.157 147.885)">
<stop offset="0" stop-color="#80ffee">
</stop>
<stop offset=".156" stop-color="#85fced">
</stop>
<stop offset=".34" stop-color="#93f1e8">
</stop>
<stop offset=".539" stop-color="#abe1e1">
</stop>
<stop offset=".748" stop-color="#ccc9d8">
</stop>
<stop offset=".962" stop-color="#f7accb">
</stop>
<stop offset="1" stop-color="#ffa6c9">
</stop>
</linearGradient>
<path d="M118.54 35.59c6.64 19.8-55.96 37.47-58.55 26.1c-3.57-15.6 50.34-50.56 58.55-26.1z" fill="url(#IconifyId17ecdb2904d178eab22860)">
</path>
<g fill="none" stroke="#87cdde" stroke-width=".956" stroke-linecap="round" stroke-linejoin="round" stroke-miterlimit="10">
<path d="M110.46 31.63C92.2 38.58 77.77 49.1 64.15 62.77">
</path>
<path d="M115.77 37.54C100.39 50 84.27 58.46 64.99 63.89">
</path>
<path d="M97.43 31.09c-5.33 4.8-7.72 8.38-10.12 12.42">
</path>
<path d="M113.74 33.34c-4.72 3.95-8.3 7.58-10.26 13.35">
</path>
<path d="M91.42 53.44c-5.97 1.22-10.36 1.32-15.62-.61">
</path>
</g>
<linearGradient id="IconifyId17ecdb2904d178eab22861" gradientUnits="userSpaceOnUse" x1="1662.631" y1="-134.263" x2="1691.797" y2="-119.115" gradientTransform="scale(1 -1) rotate(12.075 618.167 -7853.868)">
<stop offset="0" stop-color="#80ffee">
</stop>
<stop offset=".156" stop-color="#85fced">
</stop>
<stop offset=".34" stop-color="#93f1e8">
</stop>
<stop offset=".539" stop-color="#abe1e1">
</stop>
<stop offset=".748" stop-color="#ccc9d8">
</stop>
<stop offset=".962" stop-color="#f7accb">
</stop>
<stop offset="1" stop-color="#ffa6c9">
</stop>
</linearGradient>
<path d="M24.38 85.27c11.04 11.24 47.55-18.37 39.7-24.6c-9.49-7.53-54.74 9.29-39.7 24.6z" fill="url(#IconifyId17ecdb2904d178eab22861)">
</path>
<g fill="none" stroke="#87cdde" stroke-width=".956" stroke-linecap="round" stroke-linejoin="round" stroke-miterlimit="10">
<path d="M25.39 80.5c8.97-10.2 17.84-14.49 30.11-20.32c.28-.13.6-.33.58-.64s-.64-.29-.51-.01">
</path>
<path d="M39.54 80.96c3.72-2.49 15.7-13.97 22.79-21.7l-.49.34">
</path>
<path d="M31.5 81.62c1.08-3.71 10.56-12.46 12.57-15.75">
</path>
</g>
<linearGradient id="IconifyId17ecdb2904d178eab22862" gradientUnits="userSpaceOnUse" x1="1663.945" y1="-119.069" x2="1707.534" y2="-160.094" gradientTransform="scale(1 -1) rotate(14.277 487.33 -6664.924)">
<stop offset="0" stop-color="#80ffee">
</stop>
<stop offset=".156" stop-color="#85fced">
</stop>
<stop offset=".34" stop-color="#93f1e8">
</stop>
<stop offset=".539" stop-color="#abe1e1">
</stop>
<stop offset=".748" stop-color="#ccc9d8">
</stop>
<stop offset=".962" stop-color="#f7accb">
</stop>
<stop offset="1" stop-color="#ffa6c9">
</stop>
</linearGradient>
<path d="M9.47 33.38c-6.65 19.8 55.96 37.47 58.55 26.1c3.56-15.61-50.35-50.56-58.55-26.1z" fill="url(#IconifyId17ecdb2904d178eab22862)">
</path>
<g fill="none" stroke="#87cdde" stroke-width=".956" stroke-linecap="round" stroke-linejoin="round" stroke-miterlimit="10">
<path d="M17.26 29.42c18.27 6.95 32.96 17.46 46.58 31.14">
</path>
<path d="M13.11 39.19c15.38 12.46 30.61 17.06 49.9 22.49">
</path>
<path d="M29.36 29.57c4.23 2.82 6.09 4.91 7.84 9.61">
</path>
<path d="M16.77 33.83c4.72 3.95 7.3 8.23 9.26 14">
</path>
<path d="M30.94 42.79c7.32 3.4 16.19 9.65 21.26 9.82">
</path>
</g>
<linearGradient id="IconifyId17ecdb2904d178eab22863" gradientUnits="userSpaceOnUse" x1="46.53" y1="34.1" x2="57.638" y2="34.1" gradientTransform="scale(1 -1) rotate(-5.463 -1310.517 -33.928)">
<stop offset="0" stop-color="#ffd29c">
</stop>
<stop offset=".575" stop-color="#f9ddbd">
</stop>
</linearGradient>
<path d="M50.58 88.89c-1.64.3-3.18 1.64-3.43 3.29c-.12.82.12 1.64.36 2.43c.65 2.11 1.33 4.2 2.04 6.29c.39 1.14.96 2.43 2.13 2.71c.78.19 1.61-.17 2.18-.74s.92-1.31 1.23-2.05c1.44-3.44 3.12-4.93 3.18-8.65c.07-4.74-4.17-3.91-7.69-3.28z" fill="url(#IconifyId17ecdb2904d178eab22863)">
</path>
<linearGradient id="IconifyId17ecdb2904d178eab22864" gradientUnits="userSpaceOnUse" x1="68.859" y1="64.792" x2="67.619" y2="35.747" gradientTransform="matrix(1 0 0 -1 0 130)">
<stop offset="0" stop-color="#ffd29c">
</stop>
<stop offset=".575" stop-color="#f9ddbd">
</stop>
</linearGradient>
<path d="M55.64 90.28l13-4.42c0-.43-4.1-11.29-4.1-11.29l8.23-14.6c1.75 3.3 7.11 18.7 8.84 26.71c.65 3.01-.48 6.94-4.98 8.11c-5.02 1.3-9.87 1.92-16.25 2.58c-6.37.66-8.57-5.38-4.74-7.09z" fill="url(#IconifyId17ecdb2904d178eab22864)">
</path>
<linearGradient id="IconifyId17ecdb2904d178eab22865" gradientUnits="userSpaceOnUse" x1="62.482" y1="38.52" x2="70.505" y2="37.752" gradientTransform="matrix(1 0 0 -1 0 130)">
<stop offset="0" stop-color="#ffd29c">
</stop>
<stop offset=".575" stop-color="#f9ddbd" stop-opacity="0">
</stop>
</linearGradient>
<path d="M68.64 85.87l-10.37 3.52l1.38 8.02s7.55-.6 11.85-1.51c4.3-.9-2.86-10.03-2.86-10.03z" fill="url(#IconifyId17ecdb2904d178eab22865)">
</path>
<linearGradient id="IconifyId17ecdb2904d178eab22866" gradientUnits="userSpaceOnUse" x1="59.639" y1="61.828" x2="48.639" y2="9.495" gradientTransform="matrix(1 0 0 -1 0 130)">
<stop offset="0" stop-color="#ffd29c">
</stop>
<stop offset=".575" stop-color="#f9ddbd">
</stop>
</linearGradient>
<path d="M65.46 74.45c-.3-4.5-1.21-9.32-2.13-13.95l-.42-.26l-11.06 8.86l-1.48 24.47l-3.22 15.87c-1.56.2-3.17.85-3.78 2.27c-.32.76-.3 1.62-.26 2.45c.1 2.2.23 4.4.4 6.6c.09 1.2.32 2.59 1.38 3.16c.71.38 1.6.24 2.29-.17c.69-.4 1.22-1.04 1.7-1.67c1.47-1.94 3.65-6.32 3.65-6.32S58.74 104.25 61 96.4c3.11-10.87 4.31-21.98 4.46-21.95z" fill="url(#IconifyId17ecdb2904d178eab22866)">
</path>
<linearGradient id="IconifyId17ecdb2904d178eab22867" gradientUnits="userSpaceOnUse" x1="51.263" y1="70.031" x2="19.433" y2="70.031" gradientTransform="matrix(1 0 0 -1 0 130)">
<stop offset="0" stop-color="#ffd29c">
</stop>
<stop offset=".575" stop-color="#f9ddbd">
</stop>
</linearGradient>
<path d="M30.01 75.16c-2.86-.68-5.05-1.69-6.54-2.19c-1.5-.5-1.55-3.35 1.59-2.43c1.79.52 1.08-.68-.39-1.45c-1.47-.78-5.2 1.08-6.08.25c-.61-.57-.52-1.39-.18-1.7c1.15-1.02 3.9-1.99 6.32-1.88c2.16.1 5.55 3.29 7.63 2.74c.01 0 3.97-7.04 7.59-13.47l5.86-10.41l10.88 4.62s-18.5 21.87-19.47 22.77c-2.17 2.02-4.17 3.88-7.21 3.15z" fill="url(#IconifyId17ecdb2904d178eab22867)">
</path>
<linearGradient id="IconifyId17ecdb2904d178eab22868" gradientUnits="userSpaceOnUse" x1="76.658" y1="74.54" x2="102.615" y2="74.54" gradientTransform="matrix(1 0 0 -1 0 130)">
<stop offset="0" stop-color="#ffd29c">
</stop>
<stop offset=".575" stop-color="#f9ddbd">
</stop>
</linearGradient>
<path d="M104.34 49.26c-.08-.09-.17-.17-.26-.26a2.692 2.692 0 0 0-2.8-.48c-1.25.49-5.64 3.46-6.71 4.1l-5.04 3.03l-5.86-9.76l-9.25 4.78l10.65 12.45c1.14 1.71 3.57 2.44 5.39 1.48c0 0 .08-.06.21-.15c.27-.12.54-.28.78-.46c3.08-2.44 9.6-7.91 10.56-8.83c1.49-1.47 4.27-3.78 2.33-5.9z" fill="url(#IconifyId17ecdb2904d178eab22868)">
</path>
<linearGradient id="IconifyId17ecdb2904d178eab22869" gradientUnits="userSpaceOnUse" x1="98.82" y1="77.9" x2="102.132" y2="76.685" gradientTransform="scale(1 -1) rotate(8.882 941.987 13.848)">
<stop offset=".437" stop-color="#f9ddbd" stop-opacity="0">
</stop>
<stop offset="1" stop-color="#ffd29c">
</stop>
</linearGradient>
<path d="M103.61 47.94l1.04 1.27l-1.12 5.44l-1.14.12l-4.65 4.05l1-8.51s-.28-.06 1.68-.32c1.95-.25 3.19-2.05 3.19-2.05z" fill="url(#IconifyId17ecdb2904d178eab22869)">
</path>
<g>
<path d="M110.46 21.34l-.09-.03l-9.15 40.97a.482.482 0 1 0 .94.22v-.01l8.3-41.15z" fill="#6d4c41" stroke="#6d4c41" stroke-miterlimit="10">
</path>
<path fill="#ffd600" d="M111.39 14.76l-2.5 3.44l-4.24-.1l2.5 3.43l-1.41 4.01l4.04-1.32l3.37 2.59v-4.25l3.5-2.42l-4.05-1.31z">
</path>
<g>
<path d="M104.55 50.81c.22-.05.38-.12.56-.26l-.79 3.89l-1.85.06l.93-4.17c.31.28.67.6 1.15.48z" fill="#6d4c41">
</path>
</g>
</g>
<g>
<linearGradient id="IconifyId17ecdb2904d178eab22870" gradientUnits="userSpaceOnUse" x1="64" y1="100.789" x2="64" y2="53.171" gradientTransform="matrix(1 0 0 -1 0 130)">
<stop offset="0" stop-color="#2cd1c9">
</stop>
<stop offset=".188" stop-color="#609cb7">
</stop>
<stop offset=".376" stop-color="#8c6fa9">
</stop>
<stop offset=".555" stop-color="#ae4c9d">
</stop>
<stop offset=".723" stop-color="#c73395">
</stop>
<stop offset=".876" stop-color="#d62490">
</stop>
<stop offset="1" stop-color="#db1f8e">
</stop>
</linearGradient>
<path d="M76.33 53.58l.14 15.76L68 75.96c-.8.44-1.7.67-2.61.67c-.88.01-1.75-.19-2.54-.58l-11.01-6.48l-.13-15.77l-7.64-6.97s1.05-4.06 8.4-6.3c2.7-.82 6.25-1.4 10.91-1.44c5.15-.04 9.06.59 12 1.51c6.97 2.16 8.55 5.88 8.55 5.88l-7.6 7.1z" fill="url(#IconifyId17ecdb2904d178eab22870)">
</path>
</g>
<g>
<linearGradient id="IconifyId17ecdb2904d178eab22871" gradientUnits="userSpaceOnUse" x1="104.379" y1="77.241" x2="108.704" y2="77.241" gradientTransform="matrix(1 0 0 -1 0 130)">
<stop offset="0" stop-color="#ffd29c">
</stop>
<stop offset=".575" stop-color="#f9ddbd">
</stop>
</linearGradient>
<path d="M104.05 52.26c-.16.66.25 1.33.9 1.48l1.69.41a1.224 1.224 0 1 0 .58-2.38l-1.69-.41c-.65-.17-1.32.24-1.48.9z" fill="url(#IconifyId17ecdb2904d178eab22871)">
</path>
<linearGradient id="IconifyId17ecdb2904d178eab22872" gradientUnits="userSpaceOnUse" x1="104.379" y1="79.376" x2="108.704" y2="79.376" gradientTransform="matrix(1 0 0 -1 0 130)">
<stop offset="0" stop-color="#ffd29c">
</stop>
<stop offset=".575" stop-color="#f9ddbd">
</stop>
</linearGradient>
<path d="M104.14 50.39c-.07.68.43 1.28 1.11 1.35l2.26.23c.68.07 1.28-.43 1.35-1.11c.07-.68-.43-1.28-1.11-1.35l-2.26-.23c-.68-.07-1.28.43-1.35 1.11z" fill="url(#IconifyId17ecdb2904d178eab22872)">
</path>
<linearGradient id="IconifyId17ecdb2904d178eab22873" gradientUnits="userSpaceOnUse" x1="104.379" y1="81.722" x2="108.704" y2="81.722" gradientTransform="matrix(1 0 0 -1 0 130)">
<stop offset="0" stop-color="#ffd29c">
</stop>
<stop offset=".575" stop-color="#f9ddbd">
</stop>
</linearGradient>
<path d="M103.98 48.25s.55 1.3 1.21 1.3l2.52-.01c.67-.01 1.21-.55 1.2-1.22v-.1c0-.67-.55-1.21-1.22-1.2l-2.52.01c-.66 0-1.2.55-1.19 1.22z" fill="url(#IconifyId17ecdb2904d178eab22873)">
</path>
<linearGradient id="IconifyId17ecdb2904d178eab22874" gradientUnits="userSpaceOnUse" x1="104.379" y1="83.71" x2="108.704" y2="83.71" gradientTransform="matrix(1 0 0 -1 0 130)">
<stop offset="0" stop-color="#ffd29c">
</stop>
<stop offset=".575" stop-color="#f9ddbd">
</stop>
</linearGradient>
<path d="M103.46 46.87c.15.65.8 1.06 1.45.91l2.68-.62a1.23 1.23 0 0 0 .91-1.46c-.15-.65-.8-1.06-1.45-.91l-2.68.62c-.66.16-1.05.81-.91 1.46z" fill="url(#IconifyId17ecdb2904d178eab22874)">
</path>
<path d="M107.65 51.97c-.46-.34-.96-.47-1.46-.56c-.51-.07-1.02-.09-1.57.08c.46.34.96.48 1.46.56c.51.08 1.02.1 1.57-.08z" fill="#edbd82">
</path>
<path d="M107.84 49.52c-.49-.25-.98-.31-1.47-.31c-.49.01-.98.08-1.46.35c.49.26.98.31 1.47.31c.48-.02.97-.08 1.46-.35z" fill="#edbd82">
</path>
<path d="M104.77 47.89c.59.11 1.13.02 1.66-.11c.52-.15 1.03-.35 1.49-.74c-.59-.11-1.13-.03-1.66.11c-.52.14-1.03.34-1.49.74z" fill="#edbd82">
</path>
<linearGradient id="IconifyId17ecdb2904d178eab22875" gradientUnits="userSpaceOnUse" x1="106.212" y1="83.757" x2="100.351" y2="80.409" gradientTransform="matrix(1 0 0 -1 0 130)">
<stop offset="0" stop-color="#ffd29c">
</stop>
<stop offset=".575" stop-color="#f9ddbd">
</stop>
</linearGradient>
<path d="M107.03 48.13c.49.78-.49 1.55-1.08 1.66c-.58.11-1-.38-1.26-.91c-.49-.97-.87-1.39-1.22-1.56c-.32-.16-.03 2.03-2.18 2.48c-1.24.26-2.28-.62-2.29-1.51c-.01-1.19 2.06-3.13 4.71-3.6c2.49.2 3.08 3.07 3.32 3.44z" fill="url(#IconifyId17ecdb2904d178eab22875)">
</path>
<path d="M100.41 49.99c1.43.24 2.87-.93 3.29-2.32l.04-.13l.02-.07c.01-.03.02-.06 0 0c-.03.07-.11.12-.18.12c-.07.01-.18-.07-.19-.12l.23.47c.16.31.33.61.51.91c.31.56.85 1.36 1.76 1.41c.85.04 1.72-.69 1.57-1.63c-.17-.71-.43-1.37-.83-1.96c-.79-1.17-1.29-2.18-2.9-1.98c1.37.19 1.96 1.03 2.54 2.2c.3.58.53 1.22.65 1.84c.08.47-.49.96-.98.89c-.25-.02-.49-.14-.7-.34c-.21-.19-.36-.47-.54-.76c-.17-.29-.33-.58-.49-.88l-.23-.44c-.04-.12-.23-.26-.39-.25c-.16 0-.32.1-.39.24c-.04.09-.03.11-.04.12l-.01.06l-.03.11c-.17.61-.51 1.16-.96 1.6c-.23.21-.51.39-.8.52c-.32.14-.63.21-.95.39z" fill="#edbd82">
</path>
</g>
<linearGradient id="IconifyId17ecdb2904d178eab22876" gradientUnits="userSpaceOnUse" x1="63.925" y1="39.497" x2="63.925" y2="48.404">
<stop offset="0" stop-color="#ffd29c">
</stop>
<stop offset=".63" stop-color="#f9ddbd">
</stop>
</linearGradient>
<path d="M68.17 39.26v-4.58h-8.68v4.58c-2.81.24-5.12.69-7.01 1.26c.88 3.35 5.03 6.97 11.56 6.92c6.35-.05 10.39-3.56 11.35-6.85c-1.96-.6-4.34-1.08-7.22-1.33z" fill="url(#IconifyId17ecdb2904d178eab22876)">
</path>
<g>
<linearGradient id="IconifyId17ecdb2904d178eab22877" gradientUnits="userSpaceOnUse" x1="25.214" y1="112.404" x2="62.486" y2="112.404" gradientTransform="matrix(1 0 0 -1 0 130)">
<stop offset=".345" stop-color="#b346bd">
</stop>
<stop offset="1" stop-color="#762d7d">
</stop>
</linearGradient>
<path d="M51.97 8.24c-2.83.3-5.42 1.79-7.46 3.73c-1.74 1.66-4.52 6.41-7.46 3.73c-.98-.89.1-2.49.1-2.49s-3.05.47-2.04 3.77c0 0-7.75-3.51-9.88 3.04c0 0 1.29-1.74 3.44-1.6c1.36.09 2.5 1.04 3.44 2.01c.94.96 1.71 2.07 2.65 3.03c2.13 2.16 5.13 3.59 8.21 3.59c4.6 0 8.93-3.68 11.25-5.68c1.3-1.12 6.33-10.26 7.95-11.39c2.26-1.59-7.37-2.04-10.2-1.74z" fill="url(#IconifyId17ecdb2904d178eab22877)">
</path>
</g>
<g>
<path d="M73.86 21.57l-2.67-.06l-14.47-.3l-2.67-.06c-2.14-.04-3.92 1.78-3.97 4.06c-.05 2.27 1.66 4.17 3.8 4.22l2.67.06l14.47.3l2.67.06c2.14.04 3.92-1.78 3.97-4.06s-1.67-4.17-3.8-4.22z" fill="#edc391">
</path>
<path d="M64.34 10.21c5.96.17 11.35 4.76 11.07 14.16c-.22 7.54-5.02 11.87-9.13 13.19c-.98.32-1.92.46-2.75.44c-.83-.02-1.75-.22-2.7-.59c-4.03-1.55-8.58-6.15-8.36-13.71c.27-9.39 5.91-13.66 11.87-13.49z" fill="#f9ddbd">
</path>
<g fill="#454140">
<path d="M67.76 21.27c.33-.42 1.09-1.01 2.54-.97c1.44.04 2.17.68 2.47 1.12c.14.19.09.41-.01.54c-.1.12-.37.22-.66.12c-.3-.11-.87-.43-1.84-.46c-.97-.02-1.56.26-1.87.36c-.3.09-.57-.03-.65-.15c-.1-.16-.13-.38.02-.56z">
</path>
<path d="M55.56 20.94c.33-.42 1.09-1.01 2.54-.97c1.44.04 2.17.68 2.47 1.12c.14.19.09.41-.01.54c-.1.12-.37.22-.66.12c-.3-.11-.87-.43-1.84-.46c-.97-.02-1.56.26-1.87.36c-.3.09-.57-.03-.65-.15a.5.5 0 0 1 .02-.56z">
</path>
</g>
<g fill="#312d2d">
<ellipse transform="rotate(-88.802 58.061 24.273)" cx="58.06" cy="24.27" rx="1.85" ry="1.79">
</ellipse>
<ellipse transform="rotate(-88.802 70.004 24.523)" cx="70" cy="24.52" rx="1.85" ry="1.79">
</ellipse>
</g>
<path d="M65.37 27.79a.266.266 0 0 0-.12-.03l-2.57-.05c-.04 0-.08.01-.12.03c-.23.09-.37.33-.26.59c.1.26.6.99 1.63 1.01c1.03.02 1.56-.69 1.67-.94c.12-.27 0-.51-.23-.61z" fill="#dba689">
</path>
<path d="M67.14 30.77c-1.18.67-5.02.59-6.18-.13c-.66-.41-1.36.18-1.1.8c.26.61 2.33 2.04 4.13 2.08c1.81.04 3.9-1.31 4.19-1.91c.31-.6-.36-1.22-1.04-.84z" fill="#444">
</path>
</g>
<g>
<radialGradient id="IconifyId17ecdb2904d178eab22878" cx="66.735" cy="122.8" r="13.956" gradientTransform="matrix(-.9872 0 0 -1.0217 129.012 132.14)" gradientUnits="userSpaceOnUse">
<stop offset=".005" stop-color="#d553e0">
</stop>
<stop offset="1" stop-color="#b346bd">
</stop>
</radialGradient>
<path d="M77.66 24.27c1.85-5.49 1.45-12.32-3.33-16.4c-2.94-2.51-6.74-3.45-10.5-3.37c-5.14.12-10.22 2.09-12.64 7.06c-1.52 3.11-1.67 6.28-1.22 9.64c.6 4.3 2.93 7.31 2.93 7.31s-.33-1.35-.42-3.99c-.05-1.36.33-4.83 1.89-5.19c8.67-2.65 12.74-6.62 12.74-6.62c.7 1.52 1.95 3.34 3.21 4.36c.63.51 1.3.98 1.94 1.48c.5.38 2.1 1.2 2.48 2.31c1.42 4.94-.45 9.07-.45 9.07s2.43-2.02 3.37-5.66z" fill="url(#IconifyId17ecdb2904d178eab22878)">
</path>
</g>
</svg>