<?xml version="1.0" encoding="utf-8"?>
<!-- Uploaded to: SVG Repo, www.svgrepo.com, Generator: SVG Repo Mixer Tools -->
<svg width="800px" height="800px" viewBox="0 0 1024 1024" class="icon"  version="1.1" xmlns="http://www.w3.org/2000/svg"><path d="M774.4 249.6C563.2 249.6 384 416 364.8 620.8h44.8c211.2 0 390.4-160 416-364.8-19.2 0-32-6.4-51.2-6.4zM633.6 448c-25.6 0-44.8-19.2-44.8-44.8 0-25.6 19.2-44.8 44.8-44.8 25.6 0 44.8 19.2 44.8 44.8 0 25.6-19.2 44.8-44.8 44.8z m128-51.2c-83.2-32-89.6-108.8-89.6-115.2h19.2S704 358.4 774.4 384l-12.8 12.8z" fill="#17A09A" /><path d="M406.75494 427.249408a51.2 102.4 48.198 1 0-152.66872 136.511179 51.2 102.4 48.198 1 0 152.66872-136.511179Z" fill="#17A09A" /><path d="M588.58621 608.131655a51.2 102.4 48.193 1 0-152.656807 136.524501 51.2 102.4 48.193 1 0 152.656807-136.524501Z" fill="#17A09A" /><path d="M204.8 768c6.4 6.4 57.6-6.4 96-44.8 44.8-38.4 57.6-64 44.8-76.8-6.4-12.8-38.4-6.4-83.2 32-38.4 38.4-64 83.2-57.6 89.6z" fill="#FDD000" /></svg>